<svg width="30" height="30" viewBox="0 0 30 30" fill="none" xmlns="http://www.w3.org/2000/svg">
<g id="icon/whatsapp">
<path id="vector" d="M15.0472 4.11288C8.87202 4.11288 3.84653 8.95329 3.84435 14.902C3.8429 16.8043 4.35968 18.6609 5.33952 20.2962L3.75 25.8871L9.68927 24.3868C11.3414 25.251 13.1784 25.7018 15.0428 25.7005H15.0472C21.2223 25.7005 26.2478 20.8594 26.25 14.9107C26.2514 12.0293 25.0873 9.31692 22.9715 7.27813C20.8565 5.23861 18.044 4.11361 15.0472 4.11288ZM15.0472 23.878H15.0435C13.3727 23.878 11.7339 23.4455 10.304 22.6282L9.9629 22.4337L6.43984 23.3235L7.38048 20.0139L7.15911 19.6749C6.22928 18.2568 5.73431 16.5978 5.73508 14.902C5.73726 9.95708 9.915 5.93538 15.0508 5.93538C17.5374 5.93611 19.8752 6.87022 21.6339 8.56498C23.3925 10.2597 24.36 12.5134 24.3585 14.91C24.3564 19.8549 20.1794 23.878 15.0465 23.878H15.0472ZM20.1547 17.1607C19.8745 17.0264 18.4984 16.3739 18.2415 16.2832C17.9852 16.1939 17.7987 16.1475 17.6122 16.4175C17.4264 16.6875 16.8893 17.295 16.7267 17.4743C16.5627 17.6543 16.3994 17.676 16.1192 17.5418C15.839 17.4068 14.9369 17.1222 13.8685 16.2034C13.036 15.4892 12.4742 14.6066 12.3109 14.3359C12.1476 14.0666 12.2935 13.9207 12.4335 13.7864C12.5591 13.6667 12.7137 13.4722 12.8531 13.3147C12.9924 13.1572 13.0389 13.0447 13.1332 12.8647C13.2261 12.6854 13.1797 12.5272 13.1093 12.3929C13.0389 12.2572 12.48 10.9304 12.2456 10.3911C12.0191 9.86563 11.7883 9.93603 11.6163 9.92732C11.453 9.92006 11.2672 9.91788 11.0792 9.91788C10.8941 9.91788 10.59 9.98538 10.3331 10.2554C10.0769 10.5254 9.35323 11.1772 9.35323 12.5039C9.35323 13.8314 10.3563 15.1132 10.4964 15.2932C10.6365 15.4725 12.4706 18.1964 15.2787 19.365C15.9465 19.6415 16.4676 19.8077 16.8748 19.9326C17.5454 20.138 18.1558 20.1082 18.6377 20.0393C19.1748 19.9616 20.294 19.3875 20.5263 18.7582C20.76 18.1289 20.76 17.5889 20.6903 17.4764C20.6221 17.3639 20.4348 17.2964 20.1547 17.1607Z" fill="#E1FF04"/>
</g>
</svg>
